<svg fill="none" height="60" viewBox="0 0 60 60" width="60" xmlns="http://www.w3.org/2000/svg" xmlns:xlink="http://www.w3.org/1999/xlink"><clipPath id="a"><path d="m0 0h60v60h-60z"/></clipPath><g clip-path="url(#a)"><path d="m0 0h60v60h-60z" fill="#28472c"/><g fill="#fff"><path d="m26.556 40.9905c-.9758.8891-1.2539.9181-1.7454.5195-.9714-.686-.4349-1.473 1.4378-3.468 4.8488-3.6552 30.7286-27.2755 31.9782-26.6186.7696.3696.2888 1.1509-1.6686 2.8735-28.704 25.6584-20.2317 16.845-11.3968 14.7423 1.596-.3352 3.0622.2429 2.9117 1.4959-.2583.758.0755.7232 1.6424.1098 3.8837-1.5861 13.4661-4.6104 13.8347-4.3114 1.9659 1.5945-15.2797 6.0931-22.9576 10.662-6.512 3.8849-11.0076 5.5349-12.2978 4.4885-.8102-.7591-.0246-1.8533-1.7386-.4935zm11.3356-5.6253c4.4168-1.8668 7.838-3.5734 7.3465-3.972-.6144-.4983-24.3218 10.5231-7.3465 3.972z"/><path d="m16.913 33.4483c-.1857-1.7802-9.17792 2.5884-14.46359 6.9077-1.901704 1.7169-2.958722 1.8271-3.01336.7643-.058037-.5563.953546-2.1803 3.57706-5.6033 3.47061-4.4674 3.9805-4.9705 4.47199-4.5719 1.16729.9468.56694 1.1219-1.88387 4.5831l2.65974-1.4585c4.82463-2.809 8.32703-3.7368 9.78993-2.6522.6584.3812.7178 2.5683.3762 4.6848-.374 2.3447-.2521 3.513.3599 3.4492 1.1682-.1219 5.0055-2.1531 11.4884-6.3162 3.7909-2.4762 7.0834-4.3382 7.2619-4.2443.6259.6096-.4495 1.6216-7.0761 6.0246-9.2342 6.3621-11.7062 7.4636-13.4995 5.9073-2.0158-1.5331.1545-5.5274-.0487-7.4746z"/></g></g></svg>