<svg fill="none" viewBox="0 0 627 96"><title>nothing breathes</title><path d="m594.5 46.168c0.576 0 1.152-0.864 1.152-1.92 0-2.016-8.256-4.224-6.72-7.968 0.576-2.208 7.776-7.584 11.04-5.28 4.128 2.496-2.784 7.2-2.784 4.32 0-1.536-1.536-1.248-3.648 0.48-1.728 1.92-2.016 1.248 2.688 4.416 2.496 1.536 3.072 4.032 4.128 3.744 0.768-0.288 22.848-7.488 24.864-7.968 0.768 0 1.248 0 1.248 0.768 0 1.344 0.864 1.824-8.16 4.416-20.736 5.952-19.392 6.72-21.12 9.792-4.992 8.256-24.672 22.848-28.512 16.704-1.344-2.016-0.48-4.128 3.552-8.256 5.184-5.184 13.536-10.272 22.272-13.248zm-23.232 20.256c0.672-0.288 2.016-0.576 6.144-2.688 11.808-5.856 16.224-13.92 16.224-14.112-6.144 2.688-12.096 5.664-17.28 10.368-4.032 3.552-4.992 6.24-5.088 6.432z" fill="currentColor"/><path d="m574.68 45.592c-17.952 7.968-27.457 9.888-30.913 6.432-4.8-4.8 3.457-15.936 13.153-17.952 4.896-0.768 7.2 2.592 4.128 5.952-2.112 2.016-9.504 5.856-12.864 6.432-5.664 1.056-6.912 11.808 36.192-8.16 5.856-2.688 7.2-2.976 6.528-1.056-0.384 1.056-4.704 3.264-16.224 8.352zm-25.152-3.744-1.344 1.248c1.056-0.288 1.824-0.288 6.72-2.592 10.272-5.184-1.824-2.784-5.376 1.344z" fill="currentColor"/><path d="m515.62 41.944c-16.224 5.856-26.976 13.44-27.936 13.152-3.552-0.768-1.056-3.264 1.728-5.76 4.992-3.936 31.392-22.56 46.752-33.792 12.096-8.736 16.704-11.232 17.664-9.6 0.768 1.152-51.264 36.96-51.264 37.824 0 0.48 15.648-6.912 20.736-6.912 1.536 0 3.072 1.44 3.072 2.88 0 1.152-2.304 3.648-7.68 11.616l1.824-0.384c2.592-0.48 31.104-15.456 31.872-14.976 1.824 0.96 0.768 2.88-17.184 11.136-13.248 6.336-16.512 8.256-18.528 6.528-0.768-0.672-1.344-1.344-1.344-1.824 0-1.152 2.592-5.472 5.184-8.736 2.784-3.36 2.304-3.648-4.896-1.152z" fill="currentColor"/><path d="m455.3 34.168c3.264 0 4.608 3.168 2.016 5.472-1.536 1.248-2.784 0.768-2.304-0.768 0.576-1.824-0.48-1.536-5.28 1.056-10.368 5.088-11.904 8.832-14.4 11.328 1.44-0.768 10.944-5.952 13.536-6.432 7.968-1.536 4.896 12.384 19.584 5.184 6.048-2.784 8.736-5.184 15.84-13.056 3.936-4.416 6.912-7.968 6.912-7.968h-14.88c-15.072 0.288-16.896 0-16.128-2.112 0.48-1.056 11.04-0.768 34.08-0.768 6.432-6.048 21.888-21.792 22.656-14.592 0.288 2.304-3.936 5.568-12.288 14.592 0.48 0 40.224-0.48 36.672 3.168-0.192 0.192-4.896 0.192-10.368 0-13.056-0.768-26.016-0.576-28.992-0.576-2.208 2.112-17.952 15.648-19.968 16.992-7.968 4.608-31.872 44.64-18.432 47.712 2.592 0.576 3.072 0.768 2.592 1.824-1.056 1.248-4.896 0.48-6.432-1.056-7.68-7.68-0.48-22.656 5.856-32.352 2.88-4.32 5.184-8.256 5.376-8.448 0.288-0.288-0.96 0-2.976 0.672-4.224 1.632-8.736 1.92-11.424 0.576-0.768-0.576-2.496-2.016-3.552-3.552-1.056-1.824-2.304-2.784-3.072-2.784-0.576 0-4.416 1.44-8.16 3.552-9.024 4.608-11.616 4.896-10.56 0.192 1.248-5.28 17.664-17.568 24.096-17.856z" fill="currentColor"/><path d="m434.71 45.592c-17.952 7.968-27.456 9.888-30.912 6.432-4.8-4.8 3.456-15.936 13.152-17.952 4.896-0.768 7.2 2.592 4.128 5.952-2.112 2.016-9.504 5.856-12.864 6.432-5.664 1.056-6.912 11.808 36.192-8.16 5.856-2.688 7.2-2.976 6.528-1.056-0.384 1.056-4.704 3.264-16.224 8.352zm-25.152-3.744-1.344 1.248c1.056-0.288 1.824-0.288 6.72-2.592 10.272-5.184-1.824-2.784-5.376 1.344z" fill="currentColor"/><path d="m374.39 52.696c-3.36-3.552 3.264-10.944 4.32-12.96 0-1.056-9.216 2.016-10.176-2.112-0.768-3.36 4.704-6.624 3.936-2.784-0.864 3.552 9.216-0.96 11.616 0.672 2.784 2.112-2.496 4.704-6.144 11.904-2.016 3.552-1.536 3.84 5.376 2.496 14.4-3.744 28.32-14.976 29.376-13.92 3.072 3.168-32.64 22.944-38.304 16.704z" fill="currentColor"/><path d="m304.42 54.52c-1.824 1.344-2.304 1.344-3.072 0.576-1.536-1.344-0.48-2.592 3.072-5.664 8.928-5.376 57.312-41.088 59.328-39.744 1.248 0.768 0.288 2.016-3.36 4.608-53.568 38.688-37.536 25.152-22.08 23.136 2.784-0.288 5.184 0.96 4.704 3.072-0.576 1.248 0 1.248 2.784 0.48 6.912-2.016 23.808-5.472 24.384-4.896 3.072 3.072-27.168 7.68-41.088 14.112-11.808 5.472-19.776 7.488-21.792 5.472-1.248-1.44 0.288-3.168-2.88-1.152zm20.352-7.584c7.872-2.4 14.016-4.704 13.248-5.472-0.96-0.96-43.392 13.632-13.248 5.472z" fill="currentColor"/><path d="m252.21 51.448c4.416-4.032 8.255-7.68 8.255-7.968 0-0.96-27.744 15.936-27.744 9.792 0-5.376 28.993-23.04 36.001-20.544 2.496 1.056 1.728 2.016-2.016 2.784-13.44 2.4-50.688 29.376-13.44 8.256 11.904-7.008 12.671-7.2 14.207-6.144 2.976 2.112-4.415 7.68-12.095 15.648l5.567-2.592c13.728-5.952 30.145-15.168 30.625-14.688 2.4 2.112-5.953 6.24-34.657 20.352-9.024 4.32-10.751 5.376-17.183 11.04-16.704 14.304-24.961 19.008-27.265 16.224-4.608-5.664 22.081-15.648 39.745-32.16z" fill="currentColor"/><path d="m220.77 39.928c0-3.072-16.128 2.784-25.92 9.216-3.552 2.592-5.376 2.592-5.28 0.768 0-0.96 2.016-3.552 7.104-8.928 6.72-7.008 7.68-7.776 8.448-7.008 1.824 1.824 0.768 2.016-4.032 7.488l4.8-2.016c8.736-3.936 14.88-4.896 17.184-2.784 1.056 0.768 0.768 4.512-0.192 8.064-1.056 3.936-1.056 5.952 0 5.952 2.016 0 8.928-2.784 20.736-8.736 6.912-3.552 12.864-6.144 13.152-5.952 0.96 1.152-1.056 2.688-13.152 9.024-16.896 9.216-21.312 10.656-24.096 7.68-3.168-2.976 1.248-9.408 1.248-12.768z" fill="currentColor"/><path d="m179.82 48.472c-19.296 8.928-22.081 9.696-24.097 6.72-1.056-1.632-1.056-1.92 0.192-4.224 2.112-5.088 13.344-17.664 16.224-17.664 0.288 0 1.057 0.48 1.537 0.96 0.48 1.056 0.479 1.344-0.768 2.016-4.705 3.168-14.209 14.208-14.209 16.512 0 1.536 11.712-3.072 34.464-13.344 8.736-3.84 9.793-4.416 9.793-2.88 0 1.152-3.36 2.88-23.136 11.904zm0-24.192c2.304 0 2.304 2.016 0.576 3.648-1.92 1.824-2.401 1.824-3.457 0.48-1.728-1.824-0.191-4.128 2.881-4.128z" fill="currentColor"/><path d="m131.99 41.944c-16.224 5.856-26.976 13.44-27.936 13.152-3.552-0.768-1.056-3.264 1.728-5.76 4.992-3.936 31.392-22.56 46.752-33.792 12.096-8.736 16.704-11.232 17.664-9.6 0.768 1.152-51.264 36.96-51.264 37.824 0 0.48 15.648-6.912 20.736-6.912 1.536 0 3.072 1.44 3.072 2.88 0 1.152-2.304 3.648-7.68 11.616l1.824-0.384c2.592-0.48 31.104-15.456 31.872-14.976 1.824 0.96 0.768 2.88-17.184 11.136-13.248 6.336-16.512 8.256-18.528 6.528-0.768-0.672-1.344-1.344-1.344-1.824 0-1.152 2.592-5.472 5.184-8.736 2.784-3.36 2.304-3.648-4.896-1.152z" fill="currentColor"/><path d="m78.19 45.016-4.224 4.128c-8.64 8.256-17.664 9.984-17.472 3.072 0.192-6.24 12.864-21.024 20.16-23.616 5.376-1.824 5.76 2.592 3.456 2.112-2.496-0.576-13.824 9.216-17.664 15.264-1.824 3.456-2.976 6.432-2.208 7.008 1.248 0.768 7.584-2.784 10.944-5.856 6.624-5.952 1.632-3.456 1.728-8.448 0.096-3.456 2.784-6.24 6.144-6.24 1.248 0 2.496 0.288 2.976 0.768 1.056 1.056 0.672 4.416-0.384 6.144-1.344 2.592-1.056 2.88 2.304 2.304 4.32-0.48 10.848-2.976 18.144-6.624 8.544-4.128 8.064-5.376 14.4-12.288-27.648-1.536-30.432-0.576-30.144-2.112 0.576-3.072 12.576-1.728 32.832-1.536 3.456-3.36 15.36-16.896 20.832-18.144 3.552-0.768 4.704 2.496 2.112 6.048-1.824 2.688-10.848 11.424-12.672 13.152 28.224 1.824 37.44 2.016 37.92 2.784 1.44 2.592-6.432 1.248-41.376-0.192-1.248 0.96-4.416 3.744-11.232 8.448-13.92 9.696-52.128 63.648-51.936 56.736 0.096-1.536 35.616-44.256 39.648-48.768-3.6482 1.248-12.48 5.856-20.736 5.856h-3.552zm53.76-32.352c14.688-14.112 3.264-6.912-5.76 3.36-5.28 6.144-1.632 4.128 5.76-3.36zm-53.088 24.96c0.864-2.112 0.864-2.4-0.96-1.344-3.36 1.632-1.152 6.912 0.96 1.344z" fill="currentColor"/><path d="m31.68 39.928c0-3.072-16.128 2.784-25.92 9.216-3.552 2.592-5.376 2.592-5.28 0.768 0-0.96 2.016-3.552 7.104-8.928 6.72-7.008 7.68-7.776 8.448-7.008 1.824 1.824 0.768 2.016-4.032 7.488l4.8-2.016c8.736-3.936 14.88-4.896 17.184-2.784 1.056 0.768 0.768 4.512-0.192 8.064-1.056 3.936-1.056 5.952 0 5.952 2.016 0 8.928-2.784 20.736-8.736 6.912-3.552 12.864-6.144 13.152-5.952 0.96 1.152-1.056 2.688-13.152 9.024-16.896 9.216-21.312 10.656-24.096 7.68-3.168-2.976 1.248-9.408 1.248-12.768z" fill="currentColor"/></svg>
